<svg enable-background="new 0 0 512 512" height="512" viewBox="0 0 512 512" width="512" xmlns="http://www.w3.org/2000/svg"><path d="m211.501 358.399 88.998 51.196v-102.396z" fill="#f37e5b"/><path d="m211.501 460.801 88.998-51.205-88.998-51.196z" fill="#f37756"/><path d="m389.504 255.998v-102.399l88.996 51.199z" fill="#e76747"/><path d="m389.504 255.998 88.996 51.201v-102.401z" fill="#e0553b"/><path d="m478.5 307.199-88.996 51.2v-102.401z" fill="#f48663"/><path d="m122.501 409.596v102.404l89-51.199z" fill="#f69a81"/><path d="m33.5 460.801 89.001 51.199v-102.404z" fill="#f4866e"/><path d="m33.5 358.399 89.001 51.196-89.001 51.206z" fill="#f27660"/><path d="m122.501 307.199v102.396l-89.001-51.196z" fill="#f16754"/><path d="m122.501 102.399v102.399l-89.001-51.199z" fill="#f59184"/><path d="m33.5 51.199 89.001 51.2-89.001 51.2z" fill="#f38377"/><path d="m122.501 0v102.399l-89.001-51.2z" fill="#f16e63"/><path d="m122.501 102.399 89-51.2-89-51.199z" fill="#ee5d55"/><path d="m211.501 51.199v102.4l88.998-51.2z" fill="#f3ba8a"/><path d="m300.499 102.399v102.399l-88.998-51.199z" fill="#f19c6e"/><path d="m300.499 102.399 89.005 51.2-89.005 51.199z" fill="#ee855c"/><path d="m300.499 204.798 89.005 51.2v-102.399z" fill="#eb7852"/><path d="m300.499 204.798v102.401l89.005-51.201z" fill="#e76747"/><path d="m389.504 358.399v-102.401l-89.005 51.201z" fill="#eb7852"/><path d="m300.499 307.199v102.396l89.005-51.196z" fill="#f48663"/><path d="m122.501 409.596 89-51.196v102.401z" fill="#f16b4d"/><path d="m122.501 307.199 89 51.2-89 51.196z" fill="#f16446"/><path d="m211.501 255.998-89 51.201 89 51.2z" fill="#eb7852"/><path d="m211.501 255.998v-102.399l-89 51.199z" fill="#f69a81"/><path d="m122.501 102.399 89 51.2-89 51.199z" fill="#f4866e"/><path d="m211.501 51.199v102.4l-89-51.2z" fill="#f27660"/><path d="m211.501 153.599v102.399l88.998-51.2z" fill="#f16754"/><path d="m300.499 204.798v102.401l-88.998-51.201z" fill="#f05b47"/><path d="m211.501 358.399v-102.401l88.998 51.201z" fill="#ee855c"/></svg>